<svg width="284.2448154863607" height="277.659375" viewBox="0 0 415.8853137637944 406.25000000000006" class="css-1j8o68f">
    <defs id="SvgjsDefs5034"></defs>
    <g id="SvgjsG5035" featurekey="rootContainer" transform="matrix(8.217453245371646,0,0,8.217453245371646,0,-1.0069813908154976)" fill="#000000">
        <path xmlns="http://www.w3.org/2000/svg" d="M25.3 49.56A24.82 24.82 0 0 1 .65 27.31h.44a24.34 24.34 0 0 0 48.43 0h.44A24.82 24.82 0 0 1 25.3 49.56zM1.07 22.31h-.4a24.77 24.77 0 0 1 49.27 0h-.4a24.36 24.36 0 0 0-48.47 0z"></path>
        <circle xmlns="http://www.w3.org/2000/svg" cx=".71" cy="24.76" r=".71"></circle>
        <circle xmlns="http://www.w3.org/2000/svg" cx="49.9" cy="24.76" r=".71"></circle>
    </g>
    <g id="SvgjsG5036" featurekey="symbolFeature-0" transform="matrix(2.1232382089566455,0,0,2.1232382089566455,102.53523582086709,70.87676179104335)" fill="#000000">
        <circle xmlns="http://www.w3.org/2000/svg" cx="64" cy="30" r="4"></circle>
        <circle xmlns="http://www.w3.org/2000/svg" cx="36" cy="30" r="4"></circle>
        <path xmlns="http://www.w3.org/2000/svg" d="M55,64c0-3.3,2.7-6,6-6v10c0,10.5,8.5,19,19,19V10c0,0-10-9-30.1-9C29.9,1,20,10,20,10v47c0,23.2,18.8,42,42,42h18v-6  c-13.8,0-25-11.2-25-25V64z M49.9,51C35.1,51,26,43,26,38V14c23,0,23,25,24,28c1-3,1-28,24-28v24C74,42.1,64.8,51,49.9,51z"></path>
    </g>
    <g id="SvgjsG5037" featurekey="nameFeature-0" transform="matrix(1.2962055846655491,0,0,1.2962055846655491,107.04465284924476,280.88288873263485)" fill="#000000">
        <path d="M20.48 34.44 l0 5.56 l-18.2 0 l0 -24.48 l6 0 l0 18.92 l12.2 0 z M25.911 15.52 l18.2 0 l0 5.56 l-12.2 0 l0 3.92 l9.8 0 l0 5.56 l-9.8 0 l0 3.88 l12.2 0 l0 5.56 l-18.2 0 l0 -24.48 z M65.062 35.04 l-9 0 l-1.76 4.96 l-6.52 0 l9.8 -24.48 l6 0 l9.8 24.48 l-6.56 0 z M58.022 29.48 l5.08 0 l-2.52 -7.12 z M84.213 21.16 l0 5.84 l5.6 0 c1.84 0 2.92 -1.08 2.92 -2.92 s-1.08 -2.92 -2.92 -2.92 l-5.6 0 z M93.29299999999999 30.96 c1.12 1.52 2.24 3.04 3.4 4.52 c1.12 1.48 2.24 3 3.36 4.52 l-7.32 0 c-1.44 -1.92 -2.84 -3.84 -4.24 -5.76 c-1.4 -1.88 -2.84 -3.8 -4.28 -5.72 l0 11.48 l-6 0 l0 -24.48 l11.6 0 c4.56 0 8.44 3.48 8.44 8.08 c0 3.24 -2 6.08 -4.96 7.36 z M120.564 15.52 l6 0 l0 24.48 l-6 0 l-9.6 -14.32 l0 14.32 l-6 0 l0 -24.48 l6 0 l9.6 14.32 l0 -14.32 z M140.07500000000002 40 l0 -9.08 c-4.84 -1.08 -7.64 -5.08 -7.64 -9.88 l0 -5.52 l6 0 l0 5.52 c0 2.88 1.72 4.64 4.6 4.64 c2.96 0 4.6 -1.72 4.6 -4.64 l0 -5.52 l6 0 l0 5.52 c0 4.88 -2.84 8.76 -7.56 9.88 l0 9.08 l-6 0 z"></path>
    </g>
</svg>