<svg width="278.20040737759757" height="232.04999999999998" viewBox="0 0 300 250.23327843482457" class="css-1j8o68f">
    <defs id="SvgjsDefs6465"></defs>
    <g id="SvgjsG6466" featurekey="symbolFeature-0" transform="matrix(-1.8,0,0,1.8,240,-1.7999999999999972)" fill="#000000">
        <circle xmlns="http://www.w3.org/2000/svg" cx="64" cy="30" r="4"></circle>
        <circle xmlns="http://www.w3.org/2000/svg" cx="36" cy="30" r="4"></circle>
        <path xmlns="http://www.w3.org/2000/svg" d="M55,64c0-3.3,2.7-6,6-6v10c0,10.5,8.5,19,19,19V10c0,0-10-9-30.1-9C29.9,1,20,10,20,10v47c0,23.2,18.8,42,42,42h18v-6  c-13.8,0-25-11.2-25-25V64z M49.9,51C35.1,51,26,43,26,38V14c23,0,23,25,24,28c1-3,1-28,24-28v24C74,42.1,64.8,51,49.9,51z"></path>
    </g>
    <g id="SvgjsG6467" featurekey="nameFeature-0" transform="matrix(2.215411742196062,0,0,2.215411742196062,-5.0511360678469845,161.6168087469821)" fill="#000000">
        <path d="M20.48 34.44 l0 5.56 l-18.2 0 l0 -24.48 l6 0 l0 18.92 l12.2 0 z M22.723000000000003 15.52 l18.2 0 l0 5.56 l-12.2 0 l0 3.92 l9.8 0 l0 5.56 l-9.8 0 l0 3.88 l12.2 0 l0 5.56 l-18.2 0 l0 -24.48 z M58.68600000000001 35.04 l-9 0 l-1.76 4.96 l-6.52 0 l9.8 -24.48 l6 0 l9.8 24.48 l-6.56 0 z M51.646 29.48 l5.08 0 l-2.52 -7.12 z M74.649 21.16 l0 5.84 l5.6 0 c1.84 0 2.92 -1.08 2.92 -2.92 s-1.08 -2.92 -2.92 -2.92 l-5.6 0 z M83.729 30.96 c1.12 1.52 2.24 3.04 3.4 4.52 c1.12 1.48 2.24 3 3.36 4.52 l-7.32 0 c-1.44 -1.92 -2.84 -3.84 -4.24 -5.76 c-1.4 -1.88 -2.84 -3.8 -4.28 -5.72 l0 11.48 l-6 0 l0 -24.48 l11.6 0 c4.56 0 8.44 3.48 8.44 8.08 c0 3.24 -2 6.08 -4.96 7.36 z M107.812 15.52 l6 0 l0 24.48 l-6 0 l-9.6 -14.32 l0 14.32 l-6 0 l0 -24.48 l6 0 l9.6 14.32 l0 -14.32 z M124.135 40 l0 -9.08 c-4.84 -1.08 -7.64 -5.08 -7.64 -9.88 l0 -5.52 l6 0 l0 5.52 c0 2.88 1.72 4.64 4.6 4.64 c2.96 0 4.6 -1.72 4.6 -4.64 l0 -5.52 l6 0 l0 5.52 c0 4.88 -2.84 8.76 -7.56 9.88 l0 9.08 l-6 0 z"></path>
    </g>
</svg>